<svg version="1.1" id="Layer_1" xmlns="http://www.w3.org/2000/svg" xmlns:xlink="http://www.w3.org/1999/xlink" x="0px" y="0px"
	 width="100%" viewBox="0 0 555 292" enable-background="new 0 0 555 292" xml:space="preserve">
<path fill="#FEFEFE" opacity="1.000000" stroke="none" 
	d="
M358.000000,293.000000 
	C282.979095,293.000000 207.958206,293.000000 132.505310,292.642395 
	C135.630127,288.050262 137.230545,283.415527 135.364105,278.036835 
	C144.381256,283.106049 148.081406,282.408752 153.884171,274.449982 
	C155.877975,277.724915 155.235565,280.176422 152.048584,281.919769 
	C150.603928,282.710052 148.852371,282.994171 147.520416,283.913940 
	C146.785980,284.421112 146.456238,285.746094 146.323502,286.752411 
	C146.283386,287.056458 147.796005,288.028656 148.121460,287.846130 
	C151.484863,285.960052 155.276855,284.417725 157.902573,281.749451 
	C160.795670,278.809448 160.744324,274.941101 157.924759,271.315765 
	C155.078812,267.656525 152.618225,263.699341 149.942764,259.905151 
	C147.776184,256.832611 145.630463,253.888168 142.114883,258.740509 
	C141.456909,259.648682 139.332199,259.454468 138.594772,260.352386 
	C136.529434,262.867188 133.854309,265.493256 133.271301,268.441528 
	C132.686478,271.399078 134.334335,274.798126 134.697418,277.846527 
	C130.384277,272.599396 125.726089,270.762909 121.148598,272.468567 
	C116.205467,274.310455 113.112358,279.358063 114.150429,285.320984 
	C114.620659,288.022156 116.668076,290.448822 118.000000,293.000000 
	C116.933327,293.000000 115.866661,293.000000 114.367966,292.644196 
	C110.739586,287.476227 107.623535,282.606720 104.267830,277.908356 
	C103.708382,277.125092 102.106560,277.086304 100.986420,276.703461 
	C100.885170,277.909943 100.490387,279.189575 100.767700,280.301666 
	C101.029343,281.350983 102.078941,282.178741 102.641083,283.182800 
	C104.462242,286.435699 106.218666,289.724823 108.000000,293.000000 
	C97.979103,293.000000 87.958214,293.000000 77.467850,292.607635 
	C76.802902,291.103210 76.970703,289.674042 76.335213,288.946106 
	C75.069221,287.495941 73.361763,286.431152 71.836670,285.207153 
	C70.555542,286.987396 69.176559,288.708832 68.050072,290.582092 
	C67.689674,291.181366 67.997765,292.182648 68.000000,293.000000 
	C45.683849,293.000000 23.367699,293.000000 1.025774,293.000000 
	C1.025774,195.758743 1.025774,98.517471 1.025774,1.000000 
	C70.687317,1.000000 140.375000,1.000000 210.517822,1.387855 
	C209.770645,2.545614 208.664017,3.643164 207.348999,4.027317 
	C202.312653,5.498575 199.334290,10.129630 200.547165,15.067380 
	C200.964066,16.764696 201.531693,18.424992 202.203461,20.683941 
	C194.151443,15.192212 190.423569,14.778944 185.991623,18.511467 
	C181.871750,21.981136 180.625412,27.415222 182.932999,31.847157 
	C185.461197,36.702778 190.672928,39.463718 195.793228,37.806252 
	C203.199768,35.408730 204.997559,29.625414 203.165558,22.193151 
	C211.631317,26.507572 213.472351,26.243069 219.986633,20.201519 
	C220.452515,19.769464 220.980316,19.249441 221.558487,19.117641 
	C226.252441,18.047588 225.534897,15.827595 223.304031,12.691073 
	C220.645493,8.953266 218.415604,4.910594 216.000000,1.000000 
	C217.066666,1.000000 218.133347,1.000000 219.635010,1.350179 
	C222.287155,4.963995 224.342621,8.357862 226.809494,11.420314 
	C227.667694,12.485720 229.543396,12.731501 230.954376,13.351618 
	C230.862457,11.714604 231.223541,9.867032 230.581512,8.485699 
	C229.356491,5.850029 227.559540,3.480191 226.000000,1.000000 
	C335.938202,1.000000 445.876373,1.000000 555.907288,1.000000 
	C555.907288,98.216766 555.907288,195.433655 555.907288,293.000000 
	C503.979614,293.000000 451.958466,293.000000 399.418274,292.652771 
	C395.679382,290.473450 392.507965,288.549225 389.230011,286.827881 
	C381.631989,282.837952 378.990387,284.462128 379.000000,293.000000 
	C375.638702,293.000000 372.277435,293.000000 368.446960,292.581665 
	C367.338989,287.928680 366.644226,283.701447 366.079742,279.456909 
	C365.648163,276.211609 363.850983,274.593964 360.669159,275.094116 
	C357.269287,275.628540 356.798767,278.244720 357.045074,281.153564 
	C357.379364,285.101044 357.683136,289.051056 358.000000,293.000000 
M173.719391,251.076874 
	C174.928787,251.911667 176.065460,252.887222 177.360565,253.556107 
	C182.147369,256.028351 193.316132,251.121292 194.824661,245.910828 
	C194.999680,245.306335 195.108536,244.420013 194.799469,243.978149 
	C191.185791,238.811783 187.486160,233.705551 184.615067,229.705994 
	C178.863708,232.575119 174.416885,234.793457 169.254318,236.794327 
	C168.151016,234.799423 166.191422,232.844666 166.095673,230.802521 
	C165.721588,222.824112 166.031479,214.816605 165.909210,206.822647 
	C165.760605,197.105957 160.060883,192.255829 150.581268,194.436554 
	C146.040497,195.481110 141.855026,198.070160 137.188553,200.098877 
	C135.324295,195.228394 130.712296,193.209259 125.489922,194.260117 
	C120.802940,195.203217 116.421776,197.666138 111.756699,199.517746 
	C111.406921,197.997253 110.975945,196.123795 110.439148,193.790314 
	C105.119621,195.733246 100.128296,197.556305 95.136971,199.379364 
	C94.900688,199.799667 94.664413,200.219986 94.428131,200.640289 
	C99.910431,200.985275 99.765724,204.460022 99.760681,207.883194 
	C99.751610,214.046570 99.800659,220.210114 99.768166,226.373306 
	C99.744781,230.807388 101.029930,235.737076 95.578033,238.398682 
	C102.335472,238.398682 109.092903,238.398682 114.436234,238.398682 
	C113.590073,234.851517 112.270035,231.516876 112.094666,228.123077 
	C111.734093,221.145386 111.967720,214.135986 111.992325,207.139755 
	C112.007545,202.810989 115.478905,199.774887 120.470474,199.655243 
	C125.006042,199.546509 126.764923,201.272156 126.876328,206.540207 
	C127.024223,213.533447 126.865051,220.532669 126.952499,227.527893 
	C127.003860,231.636307 127.543396,235.845261 122.843048,238.341827 
	C129.522690,238.341827 136.202316,238.341827 141.618164,238.341827 
	C140.699234,235.132248 139.263565,232.167480 139.099380,229.133881 
	C138.712830,221.990906 139.002823,214.813934 138.883347,207.652985 
	C138.801285,202.734848 141.510071,200.002335 147.113358,199.669952 
	C151.862549,199.388245 153.673279,201.133148 153.815475,206.731949 
	C153.980362,213.224396 153.894135,219.724182 153.857956,226.220459 
	C153.833786,230.559570 154.949188,235.288513 149.317169,237.883118 
	C149.580933,238.217850 149.844681,238.552597 150.108444,238.887329 
	C156.665634,238.887329 163.222824,238.887329 170.415375,239.388718 
	C171.277603,243.260117 172.139832,247.131531 172.394592,250.702179 
	C171.307220,249.679459 170.252579,248.619049 169.126526,247.640854 
	C165.197464,244.227692 160.268814,244.242584 155.974854,247.644989 
	C152.361374,250.508209 150.884384,256.798523 152.895401,260.760071 
	C155.643906,266.174408 160.552856,268.775177 165.337891,267.352081 
	C173.348328,264.969757 175.485367,260.406860 173.719391,251.076874 
M464.239624,240.406174 
	C466.654449,243.834137 469.940979,244.690475 473.826660,243.551422 
	C477.146667,242.578186 480.069824,241.156509 480.340698,236.404312 
	C482.186829,234.583374 484.032959,232.762436 486.627289,231.024261 
	C488.242493,230.929260 489.857666,230.834259 491.472870,230.739258 
	C490.872681,229.226242 490.360199,227.670898 489.654480,226.208786 
	C488.055939,222.896957 486.362213,219.631073 485.458496,216.178558 
	C485.965851,214.788712 486.933594,213.388519 486.902557,212.010788 
	C486.751312,205.295212 484.369019,199.464462 478.198822,196.236038 
	C470.965485,192.451309 463.575287,193.389862 456.836609,197.611084 
	C445.227997,204.882965 443.039490,219.116394 450.981110,233.440994 
	C447.921692,235.240204 444.862305,237.039398 441.885834,238.114014 
	C438.629547,235.637100 437.876648,232.380142 437.947357,228.347916 
	C438.239502,211.686508 438.207550,195.019318 438.263702,178.354141 
	C438.266815,177.433731 437.991180,176.512375 437.767975,175.103363 
	C432.100586,176.506042 426.784912,177.821671 420.691040,179.329895 
	C426.559784,182.742813 427.566803,187.041489 425.408722,196.216583 
	C423.992065,195.768707 422.601562,195.269409 421.179321,194.888779 
	C408.459198,191.484650 397.332001,198.321274 395.391846,211.310715 
	C394.695465,215.972977 394.990784,221.013397 395.955933,225.647461 
	C398.183655,236.343658 407.514465,241.958893 418.151215,239.497269 
	C420.711304,238.904785 423.142090,237.753830 425.632324,236.859711 
	C427.163025,238.438110 429.017853,239.385345 430.887726,239.416122 
	C434.540070,239.476181 438.200806,239.024048 441.949890,239.642212 
	C441.852020,240.950684 441.888153,242.285934 441.632935,243.562958 
	C440.576385,248.849106 443.180206,252.628754 447.126862,255.301300 
	C450.986969,257.915253 455.515320,257.849518 459.138794,254.794205 
	C462.604736,251.871780 465.001038,248.146042 463.235016,243.080444 
	C462.892273,242.097397 463.473724,240.792145 463.831787,239.580521 
	C463.831787,239.580521 464.005707,239.698624 464.239624,240.406174 
M342.947937,108.608391 
	C342.638306,111.730873 341.923553,114.877617 342.108795,117.970459 
	C342.430878,123.348442 347.276306,128.168472 353.018219,129.503281 
	C356.749268,130.370636 364.509583,126.026573 366.783356,121.248383 
	C369.056824,116.470757 364.087585,114.510300 362.221802,111.353645 
	C362.110107,111.164696 361.608734,111.206093 360.654633,111.009979 
	C358.600769,112.723747 356.254211,114.681702 353.907684,116.639648 
	C354.218903,117.110001 354.530090,117.580345 354.841278,118.050690 
	C356.152649,117.580032 357.435150,116.889900 358.785095,116.712418 
	C359.757599,116.584549 361.135315,116.834015 361.755585,117.474060 
	C362.407043,118.146309 362.880341,120.185608 362.555756,120.421257 
	C359.852936,122.383476 357.124664,125.027718 354.058990,125.592262 
	C350.190948,126.304573 345.516571,120.925179 345.087585,116.348198 
	C344.734344,112.579758 346.547546,109.751732 350.079010,108.624458 
	C351.806702,108.072952 353.923706,108.870575 355.837219,108.717216 
	C356.800568,108.640007 357.703033,107.802864 358.633026,107.309357 
	C358.079285,106.581406 357.629578,105.360909 356.952332,105.217888 
	C354.925385,104.789871 352.795929,104.554512 350.731964,104.676010 
	C348.619568,104.800346 346.537231,105.435646 344.767975,105.214447 
	C351.444519,99.772591 351.001770,93.196396 348.361542,85.853134 
	C341.276215,66.146492 322.525909,53.769009 301.567841,56.121296 
	C288.867798,57.546722 278.465027,63.546822 270.475159,75.786057 
	C281.305664,71.762619 291.117035,70.479614 301.028015,73.318665 
	C310.954773,76.162224 319.064423,81.765244 324.779419,90.488373 
	C330.450531,99.144508 332.778503,108.660286 330.930023,118.986542 
	C328.807098,119.639915 326.684143,120.293289 324.528809,120.045219 
	C325.680725,102.674744 317.174896,86.600761 302.791290,79.974144 
	C309.429077,95.517944 310.034973,110.316940 300.053131,124.293678 
	C289.867157,138.556290 275.244598,142.055161 258.577271,141.242538 
	C265.022583,147.019974 271.395386,152.516769 278.186493,157.436035 
	C280.327087,158.986603 283.932343,160.164276 286.272644,159.479736 
	C293.199646,157.453644 299.829803,154.412735 307.253174,152.084763 
	C309.581909,154.344513 311.753448,158.172928 314.283203,158.426392 
	C316.854156,158.683975 319.931885,155.613907 322.489990,153.619293 
	C324.019501,152.426682 324.977448,150.501053 326.192352,148.904922 
	C324.352112,149.555435 322.306976,149.886581 320.707550,150.912521 
	C314.272644,155.040207 313.982513,155.019012 311.278442,147.396835 
	C314.008087,143.852890 316.737701,140.308960 320.214996,136.932785 
	C321.743561,138.388321 323.061066,140.228027 324.849457,141.210739 
	C327.636810,142.742386 330.805054,144.821075 333.703064,144.663696 
	C340.623627,144.287857 344.255371,139.070847 344.003571,131.542862 
	C343.808594,125.713661 338.736847,120.460022 332.959198,119.229103 
	C336.278076,115.399559 339.596924,111.570015 342.947937,108.608391 
M311.690033,43.850807 
	C306.371094,39.339142 300.968903,34.920914 295.763702,30.281637 
	C292.511871,27.383354 288.840912,26.418232 284.713470,27.121071 
	C262.299927,30.937740 245.240311,52.695141 247.194550,75.359901 
	C248.415970,89.525589 254.893097,100.619965 268.517548,108.481506 
	C267.554962,106.012558 267.015411,104.675377 266.510071,103.325401 
	C260.931824,88.424042 262.757782,74.631828 272.773590,62.113243 
	C281.047546,51.771809 291.894653,46.511917 305.068207,45.743763 
	C307.475281,45.603401 309.844055,44.806892 311.690033,43.850807 
M260.827545,132.959900 
	C279.942261,133.723816 296.897064,125.126595 299.370453,113.194229 
	C284.002014,119.539772 269.439880,118.832191 256.095398,108.393562 
	C242.891937,98.065269 238.798782,83.918480 239.516708,67.518196 
	C233.320419,74.294067 227.600143,81.108856 222.195389,88.165321 
	C221.263031,89.382599 221.267914,91.685509 221.519821,93.386246 
	C224.698547,114.846924 238.333633,128.811646 260.827545,132.959900 
M91.049507,213.636078 
	C91.031090,210.148453 91.225838,206.644379 90.957924,203.176025 
	C89.695404,186.831177 75.188843,175.265900 59.098064,177.656906 
	C46.849571,179.476944 38.989239,187.034729 35.596180,200.254196 
	C31.920628,214.574295 37.624233,230.082397 49.039112,236.510880 
	C64.398575,245.160828 87.279099,238.918243 91.049507,213.636078 
M219.598679,181.721954 
	C233.018616,177.524963 235.413666,180.996628 238.953049,189.573944 
	C239.458160,190.798035 239.980850,192.069748 240.779694,193.098724 
	C241.324188,193.800110 242.363754,194.117157 243.494904,194.793045 
	C243.926163,180.091980 245.692535,180.032837 230.131226,177.451675 
	C227.234131,176.971130 224.128159,177.211136 221.187439,177.617279 
	C196.938141,180.966522 185.406021,207.161407 199.144318,227.537277 
	C207.132675,239.385239 222.804382,243.454102 238.032074,238.222229 
	C243.336456,236.399765 245.521042,234.040298 245.385620,228.056183 
	C245.248657,222.004700 242.156219,214.616302 251.277954,209.930847 
	C241.501648,209.930847 233.268143,209.930847 225.034637,209.930847 
	C225.598785,211.201508 226.319000,211.895691 227.123032,212.012375 
	C231.420715,212.636078 232.952164,215.144348 232.756744,219.310150 
	C232.577545,223.129974 232.824905,226.967758 232.782272,230.796509 
	C232.718887,236.486542 230.762970,238.162415 225.022476,237.579407 
	C217.576874,236.823257 212.536713,232.576675 210.368942,225.771790 
	C206.808838,214.596268 206.395874,203.050156 210.607529,192.002640 
	C212.067535,188.172913 216.038757,185.300522 219.598679,181.721954 
M347.238190,209.578461 
	C347.194031,215.235947 346.989380,220.897720 347.140442,226.549988 
	C347.420227,237.018585 353.975891,242.045807 364.114502,239.324524 
	C367.830780,238.327057 371.259491,236.258438 374.708435,234.727692 
	C374.965057,236.266113 375.230530,237.857574 375.551636,239.782669 
	C380.805145,239.374863 385.763885,238.989944 389.559448,238.695312 
	C388.575775,235.274200 387.104309,232.411713 387.034241,229.515305 
	C386.757629,218.080978 386.920746,206.636002 386.920746,194.424957 
	C381.249329,195.519638 376.084412,196.516541 372.067108,197.291946 
	C373.149139,200.951813 374.604126,203.778702 374.713623,206.656799 
	C374.985321,213.797638 374.706848,220.963791 374.489807,228.114929 
	C374.448883,229.463882 373.958008,231.726501 373.182190,231.964981 
	C369.859467,232.986343 366.162720,234.322525 362.992340,233.664581 
	C361.396484,233.333405 360.339569,229.068268 359.595673,226.425354 
	C359.074951,224.575287 359.497467,222.459915 359.497528,220.463028 
	C359.497803,212.029678 359.497681,203.596329 359.497681,194.459091 
	C354.014374,195.508926 348.800476,196.507187 343.586578,197.505447 
	C348.337646,200.531555 347.240845,204.759109 347.238190,209.578461 
M270.190826,232.218887 
	C269.820007,229.956924 269.155212,227.698364 269.128998,225.432419 
	C269.012360,215.341309 269.078400,205.248093 269.078400,194.476791 
	C263.585602,195.520920 258.358368,196.514557 253.131165,197.508194 
	C257.934967,200.040146 257.003601,204.110962 256.986389,207.822327 
	C256.957092,214.143295 256.793884,220.466461 256.909607,226.784622 
	C257.095642,236.937454 263.563995,241.953125 273.471619,239.399399 
	C277.065704,238.473007 280.406616,236.564285 284.098267,235.004410 
	C284.507233,236.500214 284.928162,238.039902 285.403961,239.780075 
	C290.398743,239.394577 295.231781,239.021545 298.932007,238.735962 
	C298.049103,235.037277 296.694702,231.820526 296.616699,228.573120 
	C296.389313,219.099991 296.685364,209.614670 296.742126,200.133942 
	C296.752411,198.414062 296.601349,196.693237 296.498352,194.379181 
	C290.717743,195.533249 285.686584,196.537689 281.155823,197.442245 
	C282.424927,200.249146 284.107574,202.304565 284.172974,204.410217 
	C284.425751,212.550888 284.286560,220.712341 283.974121,228.853806 
	C283.919922,230.266205 282.633636,232.131821 281.374512,232.901062 
	C277.969147,234.981537 274.279358,235.737106 270.190826,232.218887 
M320.942688,220.498627 
	C320.945618,216.671875 320.479553,212.764175 321.120880,209.047592 
	C321.529846,206.677704 323.332275,204.350861 325.077087,202.556061 
	C325.482635,202.138824 328.124634,204.339767 329.864655,204.673370 
	C332.589081,205.195724 336.060425,206.203918 338.007294,205.019867 
	C339.577393,204.064987 340.476807,199.760605 339.701843,197.674881 
	C338.193634,193.615509 334.045502,192.954605 330.454010,194.726166 
	C327.007416,196.426224 324.075653,199.170013 320.901215,201.467041 
	C320.475586,199.244827 319.992188,196.721024 319.423370,193.751221 
	C313.909546,195.768112 308.925720,197.591141 303.941895,199.414169 
	C308.782318,201.462448 308.734375,205.123596 308.684235,208.879349 
	C308.610931,214.368942 308.719879,219.860962 308.650146,225.350647 
	C308.589996,230.084732 310.027527,235.363678 302.600983,238.404694 
	C311.793976,238.404694 319.218201,238.404694 326.642456,238.404694 
	C319.580505,236.411835 320.963745,230.861191 320.943268,225.979248 
	C320.937012,224.481827 320.942596,222.984375 320.942688,220.498627 
M494.922791,199.669891 
	C499.863342,211.253815 504.972443,222.770370 509.645844,234.461075 
	C511.124146,238.159103 512.741577,240.149094 517.040833,238.591705 
	C520.220825,229.853851 523.315735,220.922577 526.730408,212.115219 
	C529.062073,206.101089 529.081909,198.543457 536.800171,195.566650 
	C532.385681,195.566650 527.971252,195.566650 523.936096,195.566650 
	C525.212402,197.483429 527.740967,199.653534 527.354797,200.966232 
	C524.946533,209.152649 521.886292,217.147263 518.639832,226.345169 
	C515.769714,218.762131 513.331543,212.434021 510.983246,206.072708 
	C509.599976,202.325531 506.222778,198.145691 512.787781,195.746567 
	C505.326904,195.746567 497.866089,195.746567 489.152039,195.746567 
	C491.714447,197.354645 493.087006,198.216034 494.922791,199.669891 
M172.925507,28.624008 
	C172.756363,28.903088 172.636978,29.374929 172.410843,29.433325 
	C164.885727,31.376450 161.086609,35.776577 162.745361,43.871017 
	C162.788651,44.082180 162.386826,44.384560 162.186646,44.639973 
	C150.068161,41.648651 144.965652,43.875393 143.606796,52.748283 
	C142.792648,58.064331 148.076309,64.574127 153.544357,64.991966 
	C161.737259,65.618019 165.344086,60.703159 165.431473,48.360184 
	C172.636185,55.220531 178.599960,51.959217 184.434296,44.842037 
	C184.960724,50.657120 182.423233,52.329273 178.894913,53.677578 
	C177.438828,54.233997 176.470169,56.065903 175.279816,57.317684 
	C177.166199,57.553795 179.077713,58.081505 180.929962,57.921783 
	C182.131531,57.818172 183.433273,56.907177 184.366226,56.018070 
	C187.444778,53.084171 191.734192,50.122852 188.945618,45.196602 
	C185.527390,39.157990 181.313339,33.560966 177.303070,27.871920 
	C176.128281,26.205345 174.483475,25.248106 172.925507,28.624008 
M108.989815,83.672394 
	C108.010681,76.167755 106.912628,68.675865 106.106392,61.152695 
	C105.744339,57.774323 104.435638,55.630878 100.875977,56.095833 
	C96.806122,56.627422 96.774994,59.742958 97.155556,62.919579 
	C97.781677,68.145859 98.435608,73.369446 98.991447,78.603348 
	C99.722015,85.482552 100.008293,92.437393 101.262856,99.215851 
	C101.659485,101.358856 104.372940,104.375008 106.336235,104.633179 
	C109.609085,105.063553 110.185127,101.760437 109.998947,98.900215 
	C109.688316,94.128136 109.334145,89.358879 108.989815,83.672394 
M447.143982,271.360229 
	C450.175934,267.983978 449.694122,264.148224 447.730865,260.748535 
	C445.342712,256.613159 442.350006,252.809799 439.441711,248.997925 
	C437.499969,246.452896 435.528015,241.656677 432.442322,248.296921 
	C432.186218,248.848083 430.649231,248.804504 429.707123,249.036285 
	C424.850586,250.231201 421.608154,254.382446 422.117554,258.753754 
	C422.721497,263.936401 427.780090,269.372101 431.882050,270.080627 
	C437.298004,271.016113 440.277161,267.547882 443.777924,263.051331 
	C446.458557,272.239044 435.631927,270.657410 435.024384,276.385620 
	C440.544830,278.227020 443.470001,274.803894 447.143982,271.360229 
M459.038788,28.138540 
	C456.230927,29.305450 457.510284,30.802032 458.638519,32.385342 
	C462.185028,37.362259 465.634003,42.409763 469.251404,47.333977 
	C469.859985,48.162369 471.117584,48.513985 472.075287,49.085896 
	C472.506653,48.705570 472.938049,48.325249 473.369415,47.944923 
	C470.996826,43.884174 468.624268,39.823421 466.251678,35.762672 
	C470.325623,37.298100 473.687164,39.563763 477.217255,41.526218 
	C478.336243,42.148277 480.583771,42.582218 481.112915,42.003403 
	C481.964600,41.071819 482.189392,39.182465 482.019318,37.777641 
	C481.604431,34.350853 480.811279,30.969864 480.056030,26.963608 
	C485.284515,28.651512 484.957703,35.696323 491.052155,35.076782 
	C488.137909,29.513317 484.769653,24.338671 481.098297,19.388832 
	C480.077454,18.012472 478.158691,17.302090 476.651855,16.286180 
	C476.273285,18.210516 475.392059,20.195112 475.614136,22.047447 
	C476.189148,26.843861 477.250397,31.581984 478.335236,37.538731 
	C475.861877,36.218449 474.612335,35.523232 473.338196,34.876404 
	C468.824707,32.585102 464.302826,30.310331 459.038788,28.138540 
M425.002014,270.849274 
	C423.510803,264.753723 420.038391,261.379791 414.751587,261.032196 
	C409.467163,260.684784 406.454407,264.164764 404.186859,268.091339 
	C401.530396,272.691437 403.575378,276.772980 406.822174,280.284851 
	C409.740112,283.441010 413.217773,284.956757 417.533478,283.210693 
	C422.719513,281.112579 425.654388,277.560699 425.002014,270.849274 
M363.682892,106.287971 
	C364.921570,107.827141 365.988220,109.555840 367.433350,110.867569 
	C370.854340,113.972755 374.456451,116.413040 379.459351,113.830887 
	C385.370056,110.780190 388.419220,107.033791 386.722473,101.370598 
	C385.496643,97.279205 382.461823,93.072517 379.048553,90.474319 
	C375.466248,87.747467 371.038361,89.268387 367.219086,92.171234 
	C362.429626,95.811470 362.496429,100.482910 363.682892,106.287971 
M451.216187,36.034622 
	C442.849640,36.413898 438.332977,41.362522 439.005981,49.412636 
	C439.582184,56.305420 445.694275,61.398804 452.916199,61.004440 
	C459.253571,60.658382 463.555511,55.426025 462.941406,48.180344 
	C462.380829,41.566826 457.785767,38.222828 451.216187,36.034622 
M119.008545,70.468391 
	C119.519936,71.641235 119.708931,73.407745 120.595718,73.889313 
	C125.842522,76.738602 131.136780,79.586151 136.687180,81.729744 
	C138.052719,82.257118 141.430374,80.591225 142.049576,79.147354 
	C142.617142,77.823929 141.240112,74.530602 139.796204,73.687836 
	C134.949814,70.859085 129.757080,68.578583 124.563370,66.407761 
	C121.669449,65.198189 119.813736,66.786446 119.008545,70.468391 
M390.973724,77.516960 
	C388.248474,77.123062 386.510742,78.298103 387.107666,81.038719 
	C388.704315,88.369316 390.633667,95.627434 392.430847,102.914352 
	C392.944092,102.997330 393.457367,103.080307 393.970612,103.163277 
	C394.561981,101.983650 395.714539,100.773338 395.651978,99.629463 
	C395.294983,93.100517 400.336884,89.467957 406.238800,92.008881 
	C407.478333,92.542534 409.143951,92.086479 410.613251,92.086479 
	C410.722900,91.594109 410.832520,91.101746 410.942139,90.609375 
	C404.506897,86.351746 398.071625,82.094109 390.973724,77.516960 
M424.889496,52.040596 
	C418.146790,55.756500 416.199524,60.520985 418.882050,66.739159 
	C421.901154,73.737587 427.995911,77.418808 433.614716,75.637634 
	C440.515839,73.449951 443.057770,68.750938 440.577484,61.129452 
	C439.577515,62.056541 438.761658,63.237667 438.741119,64.432465 
	C438.668854,68.633636 435.938141,71.696808 431.976410,72.029564 
	C427.283417,72.423737 424.782257,69.174385 423.226440,65.899399 
	C422.131653,63.594830 422.131378,59.868450 423.281372,57.612438 
	C424.971710,54.296600 428.628510,53.544498 432.381500,54.810162 
	C432.716461,54.923134 433.239410,54.478699 433.667206,54.296467 
	C432.433472,50.536385 431.576569,50.272026 424.889496,52.040596 
M113.435150,99.586716 
	C119.349312,95.766335 125.365417,92.087181 131.066772,87.971970 
	C131.913513,87.360794 131.990997,83.931564 131.161285,83.154129 
	C129.864716,81.939285 127.299904,81.102409 125.616631,81.513824 
	C123.324509,82.074028 121.256218,83.824966 119.269287,85.303612 
	C114.669090,88.726997 109.203499,91.842361 113.435150,99.586716 
M397.452576,280.069153 
	C399.333374,282.775574 401.073578,285.597839 403.162384,288.132843 
	C404.029541,289.185211 405.641449,289.623871 406.914703,290.341644 
	C406.932770,288.717316 407.589417,286.690430 406.861786,285.536224 
	C403.087677,279.549530 399.107422,273.674164 394.838226,268.033051 
	C393.925476,266.826996 391.517731,266.752411 389.798706,266.156555 
	C389.498718,266.728027 389.198700,267.299500 388.898712,267.870941 
	C391.600159,271.749329 394.301575,275.627716 397.452576,280.069153 
M296.510559,268.180481 
	C296.871399,262.647949 297.232239,257.115387 297.593079,251.582855 
	C296.889801,251.551819 296.186493,251.520767 295.483185,251.489716 
	C295.252045,255.160294 295.020874,258.830902 294.765198,262.891235 
	C290.973907,259.221069 290.457764,253.682724 285.674194,250.912399 
	C285.674194,257.317902 285.674194,262.720703 285.674194,268.123474 
	C286.117188,268.130249 286.560211,268.136993 287.003204,268.143768 
	C287.189209,264.721893 287.375214,261.300049 287.620728,256.782990 
	C290.790405,261.206512 293.303589,264.713837 296.510559,268.180481 
M138.161758,54.325348 
	C136.258987,51.799065 134.356201,49.272785 132.453430,46.746502 
	C131.933273,46.919041 131.413116,47.091579 130.892960,47.264118 
	C130.723083,48.695251 129.858566,50.698048 130.492188,51.467945 
	C136.044052,58.214031 139.328842,66.891594 147.427124,71.737045 
	C147.714630,69.567810 147.513306,67.642296 146.574615,66.195045 
	C144.069321,62.332520 141.247131,58.675545 138.161758,54.325348 
M264.890686,260.548248 
	C264.607849,259.773438 264.389648,258.967133 264.030151,258.229675 
	C262.921844,255.956284 261.759583,253.709213 260.618256,251.451904 
	C259.344635,253.740662 257.856567,255.939606 256.851013,258.340637 
	C255.561768,261.419159 254.660706,264.660248 253.592361,267.831268 
	C259.428680,262.073273 259.428680,262.073273 267.522217,269.123871 
	C266.468506,265.750641 265.774078,263.527649 264.890686,260.548248 
M323.003204,255.475357 
	C324.884064,257.318420 326.852966,259.082123 328.612793,261.034332 
	C329.669220,262.206207 330.399323,263.672211 331.276093,265.006073 
	C329.650818,265.454498 328.041595,266.155548 326.394470,266.260284 
	C325.340912,266.327301 324.231323,265.513458 323.146851,265.094513 
	C322.952515,265.749695 322.758148,266.404877 322.563812,267.060059 
	C324.954956,267.545074 327.466400,268.695984 329.697113,268.292969 
	C331.323364,267.999115 333.931335,265.378387 333.706940,264.287537 
	C333.295013,262.285065 331.155457,260.612793 329.662598,258.865692 
	C328.430054,257.423218 327.091339,256.071472 325.799683,254.679535 
	C327.727264,254.461975 329.655945,254.253647 331.581482,254.019333 
	C331.986145,253.970093 332.379242,253.825333 332.907806,253.691666 
	C328.854767,249.793655 326.299591,250.107468 323.003204,255.475357 
M239.123581,251.495285 
	C237.128006,255.023010 237.253601,265.487152 239.633224,268.424103 
	C239.864792,266.072662 240.062805,264.061951 240.265213,262.006531 
	C241.327820,261.925903 242.153580,261.946716 242.943573,261.788666 
	C246.101181,261.157013 249.285370,260.532837 249.141891,256.199615 
	C248.990723,251.634491 245.540604,251.779007 242.423401,251.468353 
	C241.605545,251.386856 240.773056,251.452301 239.123581,251.495285 
M189.156418,229.313705 
	C191.823242,233.302231 194.399368,237.357117 197.229599,241.226105 
	C197.832367,242.050079 199.359848,242.197601 200.461319,242.656769 
	C200.773636,241.383469 201.767502,239.691376 201.285126,238.906387 
	C198.609543,234.552185 195.650497,230.362167 192.589462,226.264618 
	C192.077850,225.579788 190.589798,225.624390 189.552917,225.331940 
	C189.320297,226.442368 189.087677,227.552780 189.156418,229.313705 
M410.448578,78.060814 
	C408.682068,75.475899 407.109894,72.720520 405.060059,70.384201 
	C404.151917,69.349083 402.277527,69.161705 400.841766,68.589523 
	C400.601227,69.113800 400.360687,69.638069 400.120148,70.162346 
	C404.009369,75.841942 407.833954,81.568230 411.864746,87.145523 
	C412.404388,87.892242 413.986053,87.885902 415.085175,88.228279 
	C415.103821,87.049911 415.547272,85.639961 415.056335,84.739372 
	C413.884552,82.589775 412.272034,80.680443 410.448578,78.060814 
M316.590759,251.636719 
	C312.724762,251.636719 308.858795,251.636719 304.992798,251.636719 
	C305.005981,252.046921 305.019196,252.457123 305.032379,252.867310 
	C306.549133,253.199142 308.065887,253.530975 310.372681,254.035660 
	C310.372681,258.876373 310.372681,263.547729 310.372681,268.219086 
	C310.874542,268.207001 311.376434,268.194916 311.878296,268.182831 
	C311.878296,263.354584 311.878296,258.526337 311.878296,253.982697 
	C314.017090,253.315430 315.501343,252.852356 316.590759,251.636719 
M111.547295,61.994526 
	C108.247955,65.728653 108.519119,69.205078 112.322479,69.765999 
	C113.823822,69.987427 115.993980,69.217239 117.007187,68.115013 
	C117.860252,67.186981 118.183723,64.377625 117.491814,63.723904 
	C116.185539,62.489712 113.980576,62.206699 111.547295,61.994526 
M372.715820,280.037079 
	C369.714905,280.958527 367.898468,282.834686 369.720215,285.844482 
	C370.559296,287.230682 373.017822,288.774170 374.298248,288.456726 
	C375.771545,288.091370 377.940613,285.463959 377.669922,284.328674 
	C377.270355,282.652985 374.983185,281.427368 372.715820,280.037079 
M274.038605,256.783813 
	C274.038605,260.524261 274.038605,264.264679 274.038605,268.005127 
	C274.525238,267.982513 275.011902,267.959930 275.498535,267.937317 
	C275.498535,262.526489 275.498535,257.115692 275.498535,251.704865 
	C275.100342,251.695160 274.702148,251.685455 274.303955,251.675751 
	C274.215515,253.076965 274.127045,254.478195 274.038605,256.783813 
z"/>
<path fill="#F1F1F1" opacity="1.000000" stroke="none" 
	d="
M215.583344,1.000000 
	C218.415604,4.910594 220.645493,8.953266 223.304031,12.691073 
	C225.534897,15.827595 226.252441,18.047588 221.558487,19.117641 
	C220.980316,19.249441 220.452515,19.769464 219.986633,20.201519 
	C213.472351,26.243069 211.631317,26.507572 203.165558,22.193151 
	C204.997559,29.625414 203.199768,35.408730 195.793228,37.806252 
	C190.672928,39.463718 185.461197,36.702778 182.932999,31.847157 
	C180.625412,27.415222 181.871750,21.981136 185.991623,18.511467 
	C190.423569,14.778944 194.151443,15.192212 202.203461,20.683941 
	C201.531693,18.424992 200.964066,16.764696 200.547165,15.067380 
	C199.334290,10.129630 202.312653,5.498575 207.348999,4.027317 
	C208.664017,3.643164 209.770645,2.545614 210.986481,1.387855 
	C212.388885,1.000000 213.777786,1.000000 215.583344,1.000000 
M188.119171,22.426437 
	C185.617889,26.581167 186.391846,30.884869 190.079346,33.009720 
	C193.399414,34.922844 196.659897,34.328846 198.086700,30.969261 
	C198.962357,28.907368 198.680756,25.522217 197.499359,23.606750 
	C195.561813,20.465311 192.085831,20.188063 188.119171,22.426437 
M216.464905,11.097782 
	C212.789490,7.431219 209.222015,6.871593 206.762665,9.462953 
	C204.141174,12.225142 204.785599,14.934010 206.994644,17.374727 
	C208.778152,19.345264 210.567535,22.487738 213.892181,20.311640 
	C216.840439,18.381893 219.560410,15.875370 216.464905,11.097782 
z"/>
<path fill="#F1F1F1" opacity="1.000000" stroke="none" 
	d="
M118.464645,293.000000 
	C116.668076,290.448822 114.620659,288.022156 114.150429,285.320984 
	C113.112358,279.358063 116.205467,274.310455 121.148598,272.468567 
	C125.726089,270.762909 130.384277,272.599396 134.695587,277.844696 
	C135.000000,278.000000 134.996338,277.996338 134.996338,277.996338 
	C137.230545,283.415527 135.630127,288.050262 132.036652,292.642395 
	C127.643097,293.000000 123.286201,293.000000 118.464645,293.000000 
M128.299225,288.838348 
	C132.299240,286.126129 131.605316,282.652832 129.512375,279.313324 
	C127.433746,275.996674 123.648201,275.969269 121.275841,277.864349 
	C119.663139,279.152618 118.765701,283.161957 119.544342,285.187073 
	C120.690880,288.169006 123.114754,291.540710 128.299225,288.838348 
z"/>
<path fill="#F1F1F1" opacity="1.000000" stroke="none" 
	d="
M358.454102,293.000000 
	C357.683136,289.051056 357.379364,285.101044 357.045074,281.153564 
	C356.798767,278.244720 357.269287,275.628540 360.669159,275.094116 
	C363.850983,274.593964 365.648163,276.211609 366.079742,279.456909 
	C366.644226,283.701447 367.338989,287.928680 367.988892,292.581665 
	C364.969391,293.000000 361.938812,293.000000 358.454102,293.000000 
z"/>
<path fill="#F1F1F1" opacity="1.000000" stroke="none" 
	d="
M379.468384,293.000000 
	C378.990387,284.462128 381.631989,282.837952 389.230011,286.827881 
	C392.507965,288.549225 395.679382,290.473450 398.949585,292.652771 
	C392.645599,293.000000 386.291199,293.000000 379.468384,293.000000 
z"/>
<path fill="#F2F2F2" opacity="1.000000" stroke="none" 
	d="
M108.428467,293.000000 
	C106.218666,289.724823 104.462242,286.435699 102.641083,283.182800 
	C102.078941,282.178741 101.029343,281.350983 100.767700,280.301666 
	C100.490387,279.189575 100.885170,277.909943 100.986420,276.703461 
	C102.106560,277.086304 103.708382,277.125092 104.267830,277.908356 
	C107.623535,282.606720 110.739586,287.476227 113.967972,292.644196 
	C112.285645,293.000000 110.571281,293.000000 108.428467,293.000000 
z"/>
<path fill="#F1F1F1" opacity="1.000000" stroke="none" 
	d="
M225.571533,1.000000 
	C227.559540,3.480191 229.356491,5.850029 230.581512,8.485699 
	C231.223541,9.867032 230.862457,11.714604 230.954376,13.351618 
	C229.543396,12.731501 227.667694,12.485720 226.809494,11.420314 
	C224.342621,8.357862 222.287155,4.963995 220.035004,1.350179 
	C221.714355,1.000000 223.428711,1.000000 225.571533,1.000000 
z"/>
<path fill="#F1F1F1" opacity="1.000000" stroke="none" 
	d="
M68.449982,293.000000 
	C67.997765,292.182648 67.689674,291.181366 68.050072,290.582092 
	C69.176559,288.708832 70.555542,286.987396 71.836670,285.207153 
	C73.361763,286.431152 75.069221,287.495941 76.335213,288.946106 
	C76.970703,289.674042 76.802902,291.103210 76.999191,292.607635 
	C74.299988,293.000000 71.599968,293.000000 68.449982,293.000000 
z"/>
<path fill="#EA2127" opacity="1.000000" stroke="none" 
	d="
M311.960266,44.082039 
	C309.844055,44.806892 307.475281,45.603401 305.068207,45.743763 
	C291.894653,46.511917 281.047546,51.771809 272.773590,62.113243 
	C262.757782,74.631828 260.931824,88.424042 266.510071,103.325401 
	C267.015411,104.675377 267.554962,106.012558 268.517548,108.481506 
	C254.893097,100.619965 248.415970,89.525589 247.194550,75.359901 
	C245.240311,52.695141 262.299927,30.937740 284.713470,27.121071 
	C288.840912,26.418232 292.511871,27.383354 295.763702,30.281637 
	C300.968903,34.920914 306.371094,39.339142 311.960266,44.082039 
z"/>
<path fill="#0399D4" opacity="1.000000" stroke="none" 
	d="
M306.576050,151.768707 
	C299.829803,154.412735 293.199646,157.453644 286.272644,159.479736 
	C283.932343,160.164276 280.327087,158.986603 278.186493,157.436035 
	C271.395386,152.516769 265.022583,147.019974 258.577271,141.242538 
	C275.244598,142.055161 289.867157,138.556290 300.053131,124.293678 
	C310.034973,110.316940 309.429077,95.517944 302.791290,79.974144 
	C317.174896,86.600761 325.680725,102.674744 324.383850,120.818924 
	C324.121307,123.059753 324.003754,124.526871 323.686584,126.247223 
	C323.330292,127.334930 323.173584,128.169418 322.782471,129.261780 
	C321.521149,131.934769 320.494232,134.349884 319.467346,136.765015 
	C316.737701,140.308960 314.008087,143.852890 310.835022,147.816528 
	C309.119751,149.413727 307.847900,150.591232 306.576050,151.768707 
z"/>
<path fill="#383838" opacity="1.000000" stroke="none" 
	d="
M169.780014,238.887329 
	C163.222824,238.887329 156.665634,238.887329 150.108444,238.887329 
	C149.844681,238.552597 149.580933,238.217850 149.317169,237.883118 
	C154.949188,235.288513 153.833786,230.559570 153.857956,226.220459 
	C153.894135,219.724182 153.980362,213.224396 153.815475,206.731949 
	C153.673279,201.133148 151.862549,199.388245 147.113358,199.669952 
	C141.510071,200.002335 138.801285,202.734848 138.883347,207.652985 
	C139.002823,214.813934 138.712830,221.990906 139.099380,229.133881 
	C139.263565,232.167480 140.699234,235.132248 141.618164,238.341827 
	C136.202316,238.341827 129.522690,238.341827 122.843048,238.341827 
	C127.543396,235.845261 127.003860,231.636307 126.952499,227.527893 
	C126.865051,220.532669 127.024223,213.533447 126.876328,206.540207 
	C126.764923,201.272156 125.006042,199.546509 120.470474,199.655243 
	C115.478905,199.774887 112.007545,202.810989 111.992325,207.139755 
	C111.967720,214.135986 111.734093,221.145386 112.094666,228.123077 
	C112.270035,231.516876 113.590073,234.851517 114.436234,238.398682 
	C109.092903,238.398682 102.335472,238.398682 95.578033,238.398682 
	C101.029930,235.737076 99.744781,230.807388 99.768166,226.373306 
	C99.800659,220.210114 99.751610,214.046570 99.760681,207.883194 
	C99.765724,204.460022 99.910431,200.985275 94.428131,200.640289 
	C94.664413,200.219986 94.900688,199.799667 95.136971,199.379364 
	C100.128296,197.556305 105.119621,195.733246 110.439148,193.790314 
	C110.975945,196.123795 111.406921,197.997253 111.756699,199.517746 
	C116.421776,197.666138 120.802940,195.203217 125.489922,194.260117 
	C130.712296,193.209259 135.324295,195.228394 137.188553,200.098877 
	C141.855026,198.070160 146.040497,195.481110 150.581268,194.436554 
	C160.060883,192.255829 165.760605,197.105957 165.909210,206.822647 
	C166.031479,214.816605 165.721588,222.824112 166.095673,230.802521 
	C166.191422,232.844666 168.151016,234.799423 169.629044,237.218704 
	C169.929184,238.057831 169.854599,238.472580 169.780014,238.887329 
z"/>
<path fill="#FDD42D" opacity="1.000000" stroke="none" 
	d="
M260.374237,132.926422 
	C238.333633,128.811646 224.698547,114.846924 221.519821,93.386246 
	C221.267914,91.685509 221.263031,89.382599 222.195389,88.165321 
	C227.600143,81.108856 233.320419,74.294067 239.516708,67.518196 
	C238.798782,83.918480 242.891937,98.065269 256.095398,108.393562 
	C269.439880,118.832191 284.002014,119.539772 299.370453,113.194229 
	C296.897064,125.126595 279.942261,133.723816 260.374237,132.926422 
z"/>
<path fill="#030303" opacity="1.000000" stroke="none" 
	d="
M331.656006,118.982353 
	C332.778503,108.660286 330.450531,99.144508 324.779419,90.488373 
	C319.064423,81.765244 310.954773,76.162224 301.028015,73.318665 
	C291.117035,70.479614 281.305664,71.762619 270.475159,75.786057 
	C278.465027,63.546822 288.867798,57.546722 301.567841,56.121296 
	C322.525909,53.769009 341.276215,66.146492 348.361542,85.853134 
	C351.001770,93.196396 351.444519,99.772591 344.376404,105.644096 
	C343.628510,106.629318 343.272125,107.184891 342.915771,107.740479 
	C339.596924,111.570015 336.278076,115.399559 332.643982,119.442055 
	C332.126221,119.409050 331.901978,119.184830 331.656006,118.982353 
z"/>
<path fill="#393939" opacity="1.000000" stroke="none" 
	d="
M91.031380,214.059158 
	C87.279099,238.918243 64.398575,245.160828 49.039112,236.510880 
	C37.624233,230.082397 31.920628,214.574295 35.596180,200.254196 
	C38.989239,187.034729 46.849571,179.476944 59.098064,177.656906 
	C75.188843,175.265900 89.695404,186.831177 90.957924,203.176025 
	C91.225838,206.644379 91.031090,210.148453 91.031380,214.059158 
M49.588543,222.617554 
	C49.721012,223.438629 49.833385,224.263535 49.989052,225.080185 
	C51.605061,233.557953 55.652905,237.351959 63.078918,237.359787 
	C70.589035,237.367706 75.250336,233.833038 75.914230,225.071442 
	C76.749626,214.046616 76.382660,202.888794 75.849739,191.821335 
	C75.613091,186.906799 72.975433,182.663971 67.694473,180.891266 
	C59.340389,178.086945 51.370781,182.495193 50.281879,191.927902 
	C49.145180,201.774658 49.618698,211.807312 49.588543,222.617554 
z"/>
<path fill="#373737" opacity="1.000000" stroke="none" 
	d="
M441.858063,238.783966 
	C438.200806,239.024048 434.540070,239.476181 430.887726,239.416122 
	C429.017853,239.385345 427.163025,238.438110 425.632324,236.859711 
	C423.142090,237.753830 420.711304,238.904785 418.151215,239.497269 
	C407.514465,241.958893 398.183655,236.343658 395.955933,225.647461 
	C394.990784,221.013397 394.695465,215.972977 395.391846,211.310715 
	C397.332001,198.321274 408.459198,191.484650 421.179321,194.888779 
	C422.601562,195.269409 423.992065,195.768707 425.408722,196.216583 
	C427.566803,187.041489 426.559784,182.742813 420.691040,179.329895 
	C426.784912,177.821671 432.100586,176.506042 437.767975,175.103363 
	C437.991180,176.512375 438.266815,177.433731 438.263702,178.354141 
	C438.207550,195.019318 438.239502,211.686508 437.947357,228.347916 
	C437.876648,232.380142 438.629547,235.637100 441.914642,238.518707 
	C441.943451,238.923401 441.858063,238.783966 441.858063,238.783966 
M422.072113,198.017029 
	C414.565887,197.201813 410.400024,199.557938 409.163940,206.959412 
	C408.140930,213.085190 408.093597,219.530136 408.747955,225.713669 
	C409.073608,228.791077 411.359131,232.274445 413.791992,234.378830 
	C417.956421,237.980957 425.781952,235.200089 425.846558,230.527145 
	C425.977570,221.052780 425.999878,211.572372 425.753479,202.102600 
	C425.719177,200.783783 423.908661,199.511185 422.072113,198.017029 
z"/>
<path fill="#3B3B3B" opacity="1.000000" stroke="none" 
	d="
M219.230835,181.856415 
	C216.038757,185.300522 212.067535,188.172913 210.607529,192.002640 
	C206.395874,203.050156 206.808838,214.596268 210.368942,225.771790 
	C212.536713,232.576675 217.576874,236.823257 225.022476,237.579407 
	C230.762970,238.162415 232.718887,236.486542 232.782272,230.796509 
	C232.824905,226.967758 232.577545,223.129974 232.756744,219.310150 
	C232.952164,215.144348 231.420715,212.636078 227.123032,212.012375 
	C226.319000,211.895691 225.598785,211.201508 225.034637,209.930847 
	C233.268143,209.930847 241.501648,209.930847 251.277954,209.930847 
	C242.156219,214.616302 245.248657,222.004700 245.385620,228.056183 
	C245.521042,234.040298 243.336456,236.399765 238.032074,238.222229 
	C222.804382,243.454102 207.132675,239.385239 199.144318,227.537277 
	C185.406021,207.161407 196.938141,180.966522 221.187439,177.617279 
	C224.128159,177.211136 227.234131,176.971130 230.131226,177.451675 
	C245.692535,180.032837 243.926163,180.091980 243.494904,194.793045 
	C242.363754,194.117157 241.324188,193.800110 240.779694,193.098724 
	C239.980850,192.069748 239.458160,190.798035 238.953049,189.573944 
	C235.413666,180.996628 233.018616,177.524963 219.230835,181.856415 
z"/>
<path fill="#393939" opacity="1.000000" stroke="none" 
	d="
M347.246063,209.093933 
	C347.240845,204.759109 348.337646,200.531555 343.586578,197.505447 
	C348.800476,196.507187 354.014374,195.508926 359.497681,194.459091 
	C359.497681,203.596329 359.497803,212.029678 359.497528,220.463028 
	C359.497467,222.459915 359.074951,224.575287 359.595673,226.425354 
	C360.339569,229.068268 361.396484,233.333405 362.992340,233.664581 
	C366.162720,234.322525 369.859467,232.986343 373.182190,231.964981 
	C373.958008,231.726501 374.448883,229.463882 374.489807,228.114929 
	C374.706848,220.963791 374.985321,213.797638 374.713623,206.656799 
	C374.604126,203.778702 373.149139,200.951813 372.067108,197.291946 
	C376.084412,196.516541 381.249329,195.519638 386.920746,194.424957 
	C386.920746,206.636002 386.757629,218.080978 387.034241,229.515305 
	C387.104309,232.411713 388.575775,235.274200 389.559448,238.695312 
	C385.763885,238.989944 380.805145,239.374863 375.551636,239.782669 
	C375.230530,237.857574 374.965057,236.266113 374.708435,234.727692 
	C371.259491,236.258438 367.830780,238.327057 364.114502,239.324524 
	C353.975891,242.045807 347.420227,237.018585 347.140442,226.549988 
	C346.989380,220.897720 347.194031,215.235947 347.246063,209.093933 
z"/>
<path fill="#383838" opacity="1.000000" stroke="none" 
	d="
M270.464752,232.562164 
	C274.279358,235.737106 277.969147,234.981537 281.374512,232.901062 
	C282.633636,232.131821 283.919922,230.266205 283.974121,228.853806 
	C284.286560,220.712341 284.425751,212.550888 284.172974,204.410217 
	C284.107574,202.304565 282.424927,200.249146 281.155823,197.442245 
	C285.686584,196.537689 290.717743,195.533249 296.498352,194.379181 
	C296.601349,196.693237 296.752411,198.414062 296.742126,200.133942 
	C296.685364,209.614670 296.389313,219.099991 296.616699,228.573120 
	C296.694702,231.820526 298.049103,235.037277 298.932007,238.735962 
	C295.231781,239.021545 290.398743,239.394577 285.403961,239.780075 
	C284.928162,238.039902 284.507233,236.500214 284.098267,235.004410 
	C280.406616,236.564285 277.065704,238.473007 273.471619,239.399399 
	C263.563995,241.953125 257.095642,236.937454 256.909607,226.784622 
	C256.793884,220.466461 256.957092,214.143295 256.986389,207.822327 
	C257.003601,204.110962 257.934967,200.040146 253.131165,197.508194 
	C258.358368,196.514557 263.585602,195.520920 269.078400,194.476791 
	C269.078400,205.248093 269.012360,215.341309 269.128998,225.432419 
	C269.155212,227.698364 269.820007,229.956924 270.464752,232.562164 
z"/>
<path fill="#393939" opacity="1.000000" stroke="none" 
	d="
M451.135315,232.700195 
	C443.039490,219.116394 445.227997,204.882965 456.836609,197.611084 
	C463.575287,193.389862 470.965485,192.451309 478.198822,196.236038 
	C484.369019,199.464462 486.751312,205.295212 486.902557,212.010788 
	C486.933594,213.388519 485.965851,214.788712 484.734619,216.159805 
	C481.992767,216.220551 479.974762,216.300049 477.567932,216.299316 
	C476.125916,216.268768 475.072815,216.318481 473.684448,216.272354 
	C472.893280,216.240097 472.437286,216.303680 471.529572,216.286499 
	C467.224976,216.205734 463.372101,216.205734 458.518036,216.205734 
	C459.703156,220.277466 460.633545,223.474091 461.505310,227.002930 
	C462.594360,228.655624 463.742096,229.976089 465.106842,231.581131 
	C469.496216,234.223648 473.810822,234.229660 478.575623,232.598236 
	C480.294891,231.704178 481.660126,230.857544 483.262756,229.944107 
	C483.797913,229.690079 483.975433,229.422913 484.407379,229.009674 
	C485.147736,229.609512 485.513428,230.275513 485.879089,230.941498 
	C484.032959,232.762436 482.186829,234.583374 479.798187,236.760330 
	C474.172363,237.977112 469.089020,238.837860 464.005707,239.698624 
	C464.005707,239.698624 463.831787,239.580521 463.408844,239.398346 
	C459.035706,237.044174 455.085510,234.872192 451.135315,232.700195 
M470.915039,196.979095 
	C462.496826,196.036301 459.200836,200.772705 459.570068,213.507294 
	C464.759644,213.507294 469.951965,213.507294 475.468292,213.507294 
	C475.763489,207.475830 477.309143,201.582657 470.915039,196.979095 
z"/>
<path fill="#393939" opacity="1.000000" stroke="none" 
	d="
M320.942749,220.992783 
	C320.942596,222.984375 320.937012,224.481827 320.943268,225.979248 
	C320.963745,230.861191 319.580505,236.411835 326.642456,238.404694 
	C319.218201,238.404694 311.793976,238.404694 302.600983,238.404694 
	C310.027527,235.363678 308.589996,230.084732 308.650146,225.350647 
	C308.719879,219.860962 308.610931,214.368942 308.684235,208.879349 
	C308.734375,205.123596 308.782318,201.462448 303.941895,199.414169 
	C308.925720,197.591141 313.909546,195.768112 319.423370,193.751221 
	C319.992188,196.721024 320.475586,199.244827 320.901215,201.467041 
	C324.075653,199.170013 327.007416,196.426224 330.454010,194.726166 
	C334.045502,192.954605 338.193634,193.615509 339.701843,197.674881 
	C340.476807,199.760605 339.577393,204.064987 338.007294,205.019867 
	C336.060425,206.203918 332.589081,205.195724 329.864655,204.673370 
	C328.124634,204.339767 325.482635,202.138824 325.077087,202.556061 
	C323.332275,204.350861 321.529846,206.677704 321.120880,209.047592 
	C320.479553,212.764175 320.945618,216.671875 320.942749,220.992783 
z"/>
<path fill="#3C3C3C" opacity="1.000000" stroke="none" 
	d="
M494.691193,199.373657 
	C493.087006,198.216034 491.714447,197.354645 489.152039,195.746567 
	C497.866089,195.746567 505.326904,195.746567 512.787781,195.746567 
	C506.222778,198.145691 509.599976,202.325531 510.983246,206.072708 
	C513.331543,212.434021 515.769714,218.762131 518.639832,226.345169 
	C521.886292,217.147263 524.946533,209.152649 527.354797,200.966232 
	C527.740967,199.653534 525.212402,197.483429 523.936096,195.566650 
	C527.971252,195.566650 532.385681,195.566650 536.800171,195.566650 
	C529.081909,198.543457 529.062073,206.101089 526.730408,212.115219 
	C523.315735,220.922577 520.220825,229.853851 517.040833,238.591705 
	C512.741577,240.149094 511.124146,238.159103 509.645844,234.461075 
	C504.972443,222.770370 499.863342,211.253815 494.691193,199.373657 
z"/>
<path fill="#F1F1F1" opacity="1.000000" stroke="none" 
	d="
M173.029327,28.275949 
	C174.483475,25.248106 176.128281,26.205345 177.303070,27.871920 
	C181.313339,33.560966 185.527390,39.157990 188.945618,45.196602 
	C191.734192,50.122852 187.444778,53.084171 184.366226,56.018070 
	C183.433273,56.907177 182.131531,57.818172 180.929962,57.921783 
	C179.077713,58.081505 177.166199,57.553795 175.279816,57.317688 
	C176.470169,56.065903 177.438828,54.233997 178.894913,53.677578 
	C182.423233,52.329273 184.960724,50.657120 184.434296,44.842037 
	C178.599960,51.959217 172.636185,55.220531 165.431473,48.360184 
	C165.344086,60.703159 161.737259,65.618019 153.544357,64.991966 
	C148.076309,64.574127 142.792648,58.064331 143.606796,52.748283 
	C144.965652,43.875393 150.068161,41.648651 162.189606,44.642189 
	C162.386826,44.384560 162.788651,44.082180 162.745361,43.871017 
	C161.086609,35.776577 164.885727,31.376450 172.410843,29.433325 
	C172.636978,29.374929 172.756363,28.903088 173.029327,28.275949 
M150.736008,48.153618 
	C149.958939,49.196342 148.914124,50.133816 148.455093,51.301559 
	C147.087021,54.781715 149.019608,58.541592 152.618851,60.307602 
	C156.653290,62.287163 158.919067,59.421539 160.168732,56.811451 
	C161.006714,55.061195 160.314743,51.889362 159.180038,50.048447 
	C157.559906,47.419952 154.740601,46.045475 150.736008,48.153618 
M179.961990,42.262295 
	C180.084534,38.529690 178.431549,35.721710 174.933075,34.640285 
	C173.301102,34.135822 170.512787,34.257069 169.590790,35.291275 
	C168.160645,36.895462 166.815155,39.865948 167.383575,41.628345 
	C168.065979,43.744228 170.513824,45.914078 172.702423,46.772312 
	C175.855957,48.008945 178.339371,46.007793 179.961990,42.262295 
z"/>
<path fill="#F1F1F1" opacity="1.000000" stroke="none" 
	d="
M108.994064,84.130417 
	C109.334145,89.358879 109.688316,94.128136 109.998947,98.900215 
	C110.185127,101.760437 109.609085,105.063553 106.336235,104.633179 
	C104.372940,104.375008 101.659485,101.358856 101.262856,99.215851 
	C100.008293,92.437393 99.722015,85.482552 98.991447,78.603348 
	C98.435608,73.369446 97.781677,68.145859 97.155556,62.919579 
	C96.774994,59.742958 96.806122,56.627422 100.875977,56.095833 
	C104.435638,55.630878 105.744339,57.774323 106.106392,61.152695 
	C106.912628,68.675865 108.010681,76.167755 108.994064,84.130417 
z"/>
<path fill="#F1F1F1" opacity="1.000000" stroke="none" 
	d="
M135.001831,278.001831 
	C134.334335,274.798126 132.686478,271.399078 133.271301,268.441528 
	C133.854309,265.493256 136.529434,262.867188 138.594772,260.352386 
	C139.332199,259.454468 141.456909,259.648682 142.114883,258.740509 
	C145.630463,253.888168 147.776184,256.832611 149.942764,259.905151 
	C152.618225,263.699341 155.078812,267.656525 157.924759,271.315765 
	C160.744324,274.941101 160.795670,278.809448 157.902573,281.749451 
	C155.276855,284.417725 151.484863,285.960052 148.121460,287.846130 
	C147.796005,288.028656 146.283386,287.056458 146.323502,286.752411 
	C146.456238,285.746094 146.785980,284.421112 147.520416,283.913940 
	C148.852371,282.994171 150.603928,282.710052 152.048584,281.919769 
	C155.235565,280.176422 155.877975,277.724915 153.884171,274.449982 
	C148.081406,282.408752 144.381256,283.106049 135.364105,278.036835 
	C134.996338,277.996338 135.000000,278.000000 135.001831,278.001831 
M142.031189,263.506226 
	C141.310287,263.914490 140.479904,264.204193 139.887390,264.751465 
	C137.271149,267.167847 136.798370,272.144165 139.726944,273.887054 
	C141.991013,275.234467 145.724869,275.726379 148.124695,274.812103 
	C150.957443,273.732910 150.693848,268.177216 147.917328,265.625793 
	C146.580231,264.397064 144.484955,263.993408 142.031189,263.506226 
z"/>
<path fill="#F1F1F1" opacity="1.000000" stroke="none" 
	d="
M446.874695,271.631958 
	C443.470001,274.803894 440.544830,278.227020 435.024384,276.385620 
	C435.631927,270.657410 446.458557,272.239044 443.777924,263.051331 
	C440.277161,267.547882 437.298004,271.016113 431.882050,270.080627 
	C427.780090,269.372101 422.721497,263.936401 422.117554,258.753754 
	C421.608154,254.382446 424.850586,250.231201 429.707123,249.036285 
	C430.649231,248.804504 432.186218,248.848083 432.442322,248.296921 
	C435.528015,241.656677 437.499969,246.452896 439.441711,248.997925 
	C442.350006,252.809799 445.342712,256.613159 447.730865,260.748535 
	C449.694122,264.148224 450.175934,267.983978 446.874695,271.631958 
M430.066711,264.549133 
	C432.689331,266.852020 435.442993,266.681335 437.331909,263.981445 
	C438.541290,262.252869 439.778687,259.180237 439.024506,257.763824 
	C437.916351,255.682571 435.199127,253.749786 432.861206,253.281097 
	C431.308289,252.969788 427.913910,255.103119 427.670074,256.537567 
	C427.276154,258.854980 428.797607,261.498016 430.066711,264.549133 
z"/>
<path fill="#F2F2F2" opacity="1.000000" stroke="none" 
	d="
M459.411438,28.083921 
	C464.302826,30.310331 468.824707,32.585102 473.338196,34.876404 
	C474.612335,35.523232 475.861877,36.218449 478.335236,37.538731 
	C477.250397,31.581984 476.189148,26.843861 475.614136,22.047447 
	C475.392059,20.195112 476.273285,18.210516 476.651855,16.286182 
	C478.158691,17.302090 480.077454,18.012472 481.098297,19.388832 
	C484.769653,24.338671 488.137909,29.513317 491.052155,35.076782 
	C484.957703,35.696323 485.284515,28.651512 480.056030,26.963608 
	C480.811279,30.969864 481.604431,34.350853 482.019318,37.777641 
	C482.189392,39.182465 481.964600,41.071819 481.112915,42.003403 
	C480.583771,42.582218 478.336243,42.148277 477.217255,41.526218 
	C473.687164,39.563763 470.325623,37.298100 466.251678,35.762672 
	C468.624268,39.823421 470.996826,43.884174 473.369415,47.944923 
	C472.938049,48.325249 472.506653,48.705570 472.075287,49.085896 
	C471.117584,48.513985 469.859985,48.162369 469.251404,47.333977 
	C465.634003,42.409763 462.185028,37.362259 458.638519,32.385342 
	C457.510284,30.802032 456.230927,29.305450 459.411438,28.083921 
z"/>
<path fill="#F1F1F1" opacity="1.000000" stroke="none" 
	d="
M170.097687,239.138031 
	C169.854599,238.472580 169.929184,238.057831 169.986908,237.327454 
	C174.416885,234.793457 178.863708,232.575119 184.615067,229.705994 
	C187.486160,233.705551 191.185791,238.811783 194.799469,243.978149 
	C195.108536,244.420013 194.999680,245.306335 194.824661,245.910828 
	C193.316132,251.121292 182.147369,256.028351 177.360565,253.556107 
	C176.065460,252.887222 174.928787,251.911667 173.359695,251.038437 
	C173.000000,251.000000 173.002045,251.002930 173.002045,251.002930 
	C172.139832,247.131531 171.277603,243.260117 170.097687,239.138031 
M176.845291,246.641632 
	C179.140015,249.965820 182.040833,251.319122 185.621338,248.767548 
	C188.461624,246.743469 188.959030,243.749420 187.155792,240.890121 
	C185.171616,237.743958 182.102951,235.532089 178.377609,237.559479 
	C175.079498,239.354355 174.130356,242.498810 176.845291,246.641632 
z"/>
<path fill="#F1F1F1" opacity="1.000000" stroke="none" 
	d="
M172.998779,250.998795 
	C175.485367,260.406860 173.348328,264.969757 165.337891,267.352081 
	C160.552856,268.775177 155.643906,266.174408 152.895401,260.760071 
	C150.884384,256.798523 152.361374,250.508209 155.974854,247.644989 
	C160.268814,244.242584 165.197464,244.227692 169.126526,247.640854 
	C170.252579,248.619049 171.307220,249.679459 172.698318,250.852554 
	C173.002045,251.002930 173.000000,251.000000 172.998779,250.998795 
M169.001724,256.492676 
	C169.200272,251.964767 166.286377,250.203568 162.505966,250.120102 
	C159.098068,250.044891 157.370132,252.335297 156.952042,255.809998 
	C156.435303,260.104645 159.175980,262.045654 162.415573,262.774200 
	C166.356705,263.660492 168.531525,261.220428 169.001724,256.492676 
z"/>
<path fill="#F1F1F1" opacity="1.000000" stroke="none" 
	d="
M425.003906,271.266235 
	C425.654388,277.560699 422.719513,281.112579 417.533478,283.210693 
	C413.217773,284.956757 409.740112,283.441010 406.822174,280.284851 
	C403.575378,276.772980 401.530396,272.691437 404.186859,268.091339 
	C406.454407,264.164764 409.467163,260.684784 414.751587,261.032196 
	C420.038391,261.379791 423.510803,264.753723 425.003906,271.266235 
M420.556366,271.167450 
	C417.438293,265.950043 413.872131,264.178986 410.871674,267.011383 
	C409.314636,268.481293 408.236969,271.660980 408.647583,273.729858 
	C409.253876,276.784485 411.526581,279.553528 415.416412,278.890594 
	C419.184631,278.248352 421.182739,275.891296 420.556366,271.167450 
z"/>
<path fill="#F1F1F1" opacity="1.000000" stroke="none" 
	d="
M451.058228,233.070587 
	C455.085510,234.872192 459.035706,237.044174 463.307373,239.425842 
	C463.473724,240.792145 462.892273,242.097397 463.235016,243.080444 
	C465.001038,248.146042 462.604736,251.871780 459.138794,254.794205 
	C455.515320,257.849518 450.986969,257.915253 447.126862,255.301300 
	C443.180206,252.628754 440.576385,248.849106 441.632935,243.562958 
	C441.888153,242.285934 441.852020,240.950684 441.903992,239.213089 
	C441.858063,238.783966 441.943451,238.923401 441.873169,238.881012 
	C444.862305,237.039398 447.921692,235.240204 451.058228,233.070587 
M452.281067,239.217896 
	C447.858948,240.162552 445.248627,243.074570 446.361206,246.400620 
	C447.520660,249.866913 449.842834,252.994415 453.935883,251.772308 
	C455.946106,251.172073 458.281830,248.676392 458.781250,246.626938 
	C459.802795,242.434738 456.596497,240.541763 452.281067,239.217896 
z"/>
<path fill="#F2F2F2" opacity="1.000000" stroke="none" 
	d="
M342.931854,108.174431 
	C343.272125,107.184891 343.628510,106.629318 344.213318,105.960526 
	C346.537231,105.435646 348.619568,104.800346 350.731964,104.676010 
	C352.795929,104.554512 354.925385,104.789871 356.952332,105.217888 
	C357.629578,105.360909 358.079285,106.581406 358.633026,107.309357 
	C357.703033,107.802864 356.800568,108.640007 355.837219,108.717216 
	C353.923706,108.870575 351.806702,108.072952 350.079010,108.624458 
	C346.547546,109.751732 344.734344,112.579758 345.087585,116.348198 
	C345.516571,120.925179 350.190948,126.304573 354.058990,125.592262 
	C357.124664,125.027718 359.852936,122.383476 362.555756,120.421257 
	C362.880341,120.185608 362.407043,118.146309 361.755585,117.474060 
	C361.135315,116.834015 359.757599,116.584549 358.785095,116.712418 
	C357.435150,116.889900 356.152649,117.580032 354.841278,118.050690 
	C354.530090,117.580345 354.218903,117.110001 353.907684,116.639648 
	C356.254211,114.681702 358.600769,112.723747 360.654633,111.009979 
	C361.608734,111.206093 362.110107,111.164696 362.221802,111.353645 
	C364.087585,114.510300 369.056824,116.470757 366.783356,121.248383 
	C364.509583,126.026573 356.749268,130.370636 353.018219,129.503281 
	C347.276306,128.168472 342.430878,123.348442 342.108795,117.970459 
	C341.923553,114.877617 342.638306,111.730873 342.931854,108.174431 
z"/>
<path fill="#F2F2F2" opacity="1.000000" stroke="none" 
	d="
M363.510742,105.922867 
	C362.496429,100.482910 362.429626,95.811470 367.219086,92.171234 
	C371.038361,89.268387 375.466248,87.747467 379.048553,90.474319 
	C382.461823,93.072517 385.496643,97.279205 386.722473,101.370598 
	C388.419220,107.033791 385.370056,110.780190 379.459351,113.830887 
	C374.456451,116.413040 370.854340,113.972755 367.433350,110.867569 
	C365.988220,109.555840 364.921570,107.827141 363.510742,105.922867 
M383.000427,104.278069 
	C382.802032,102.812134 382.878296,101.239441 382.357208,99.898956 
	C380.221436,94.404808 374.232605,91.378609 370.689850,94.387833 
	C368.552795,96.203011 365.938904,99.966873 366.536377,101.953949 
	C367.679474,105.755669 369.512482,110.540703 374.784180,110.885391 
	C378.806366,111.148376 381.764282,109.155563 383.000427,104.278069 
z"/>
<path fill="#F2F2F2" opacity="1.000000" stroke="none" 
	d="
M451.611816,36.089157 
	C457.785767,38.222828 462.380829,41.566826 462.941406,48.180344 
	C463.555511,55.426025 459.253571,60.658382 452.916199,61.004440 
	C445.694275,61.398804 439.582184,56.305420 439.005981,49.412636 
	C438.332977,41.362522 442.849640,36.413898 451.611816,36.089157 
M448.062134,40.136044 
	C440.146332,43.905003 441.421967,53.238094 449.367310,56.931000 
	C451.158691,57.763634 454.512878,56.848248 456.318512,55.568058 
	C458.018860,54.362503 459.639587,51.552917 459.519165,49.556168 
	C459.184021,44.000614 454.584442,40.313694 448.062134,40.136044 
z"/>
<path fill="#F1F1F1" opacity="1.000000" stroke="none" 
	d="
M331.293030,118.984451 
	C331.901978,119.184830 332.126221,119.409050 332.537872,119.768791 
	C338.736847,120.460022 343.808594,125.713661 344.003571,131.542862 
	C344.255371,139.070847 340.623627,144.287857 333.703064,144.663696 
	C330.805054,144.821075 327.636810,142.742386 324.849457,141.210739 
	C323.061066,140.228027 321.743561,138.388321 319.841156,136.848892 
	C320.494232,134.349884 321.521149,131.934769 323.055115,129.510437 
	C324.544220,132.283188 325.103790,135.324875 326.614288,137.781998 
	C328.544800,140.922363 332.379089,142.368378 335.282837,140.430466 
	C337.763519,138.774902 340.510986,134.975708 340.312866,132.336975 
	C339.766357,125.057838 332.112305,121.863548 325.783478,125.482780 
	C325.233490,125.797318 324.522430,125.830254 323.886200,125.993996 
	C324.003754,124.526871 324.121307,123.059753 324.400055,121.269646 
	C326.684143,120.293289 328.807098,119.639915 331.293030,118.984451 
z"/>
<path fill="#F1F1F1" opacity="1.000000" stroke="none" 
	d="
M119.023361,70.077255 
	C119.813736,66.786446 121.669449,65.198189 124.563370,66.407761 
	C129.757080,68.578583 134.949814,70.859085 139.796204,73.687836 
	C141.240112,74.530602 142.617142,77.823929 142.049576,79.147354 
	C141.430374,80.591225 138.052719,82.257118 136.687180,81.729744 
	C131.136780,79.586151 125.842522,76.738602 120.595718,73.889313 
	C119.708931,73.407745 119.519936,71.641235 119.023361,70.077255 
z"/>
<path fill="#F2F2F2" opacity="1.000000" stroke="none" 
	d="
M391.305054,77.676720 
	C398.071625,82.094109 404.506897,86.351746 410.942139,90.609375 
	C410.832520,91.101746 410.722900,91.594109 410.613251,92.086479 
	C409.143951,92.086479 407.478333,92.542534 406.238800,92.008881 
	C400.336884,89.467957 395.294983,93.100517 395.651978,99.629463 
	C395.714539,100.773338 394.561981,101.983650 393.970612,103.163277 
	C393.457367,103.080307 392.944092,102.997330 392.430847,102.914352 
	C390.633667,95.627434 388.704315,88.369316 387.107666,81.038719 
	C386.510742,78.298103 388.248474,77.123062 391.305054,77.676720 
M394.657898,83.832916 
	C393.645233,83.317070 392.632568,82.801216 390.359741,81.643440 
	C391.804779,85.713608 392.747406,88.368713 393.880096,91.559113 
	C395.990906,90.354530 397.465363,89.513092 400.148376,87.981964 
	C398.062500,86.334251 396.680054,85.242188 394.657898,83.832916 
z"/>
<path fill="#F2F2F2" opacity="1.000000" stroke="none" 
	d="
M425.251160,51.882027 
	C431.576569,50.272026 432.433472,50.536385 433.667206,54.296467 
	C433.239410,54.478699 432.716461,54.923134 432.381500,54.810162 
	C428.628510,53.544498 424.971710,54.296600 423.281372,57.612438 
	C422.131378,59.868450 422.131653,63.594830 423.226440,65.899399 
	C424.782257,69.174385 427.283417,72.423737 431.976410,72.029564 
	C435.938141,71.696808 438.668854,68.633636 438.741119,64.432465 
	C438.761658,63.237667 439.577515,62.056541 440.577484,61.129452 
	C443.057770,68.750938 440.515839,73.449951 433.614716,75.637634 
	C427.995911,77.418808 421.901154,73.737587 418.882050,66.739159 
	C416.199524,60.520985 418.146790,55.756500 425.251160,51.882027 
z"/>
<path fill="#F1F1F1" opacity="1.000000" stroke="none" 
	d="
M113.125633,99.360397 
	C109.203499,91.842361 114.669090,88.726997 119.269287,85.303612 
	C121.256218,83.824966 123.324509,82.074028 125.616631,81.513824 
	C127.299904,81.102409 129.864716,81.939285 131.161285,83.154129 
	C131.990997,83.931564 131.913513,87.360794 131.066772,87.971970 
	C125.365417,92.087181 119.349312,95.766335 113.125633,99.360397 
z"/>
<path fill="#F2F2F2" opacity="1.000000" stroke="none" 
	d="
M397.227783,279.787628 
	C394.301575,275.627716 391.600159,271.749329 388.898712,267.870941 
	C389.198700,267.299500 389.498718,266.728027 389.798706,266.156555 
	C391.517731,266.752411 393.925476,266.826996 394.838226,268.033051 
	C399.107422,273.674164 403.087677,279.549530 406.861786,285.536224 
	C407.589417,286.690430 406.932770,288.717316 406.914703,290.341644 
	C405.641449,289.623871 404.029541,289.185211 403.162384,288.132843 
	C401.073578,285.597839 399.333374,282.775574 397.227783,279.787628 
z"/>
<path fill="#4F4F4F" opacity="1.000000" stroke="none" 
	d="
M296.163666,268.200806 
	C293.303589,264.713837 290.790405,261.206512 287.620728,256.782990 
	C287.375214,261.300049 287.189209,264.721893 287.003204,268.143768 
	C286.560211,268.136993 286.117188,268.130249 285.674194,268.123474 
	C285.674194,262.720703 285.674194,257.317902 285.674194,250.912399 
	C290.457764,253.682724 290.973907,259.221069 294.765198,262.891235 
	C295.020874,258.830902 295.252045,255.160294 295.483185,251.489716 
	C296.186493,251.520767 296.889801,251.551819 297.593079,251.582855 
	C297.232239,257.115387 296.871399,262.647949 296.163666,268.200806 
z"/>
<path fill="#F1F1F1" opacity="1.000000" stroke="none" 
	d="
M138.356323,54.631111 
	C141.247131,58.675545 144.069321,62.332520 146.574615,66.195045 
	C147.513306,67.642296 147.714630,69.567810 147.427124,71.737045 
	C139.328842,66.891594 136.044052,58.214031 130.492188,51.467945 
	C129.858566,50.698048 130.723083,48.695251 130.892960,47.264118 
	C131.413116,47.091579 131.933273,46.919041 132.453430,46.746502 
	C134.356201,49.272785 136.258987,51.799065 138.356323,54.631111 
z"/>
<path fill="#4F4F4F" opacity="1.000000" stroke="none" 
	d="
M264.985168,260.926453 
	C265.774078,263.527649 266.468506,265.750641 267.522217,269.123871 
	C259.428680,262.073273 259.428680,262.073273 253.592361,267.831268 
	C254.660706,264.660248 255.561768,261.419159 256.851013,258.340637 
	C257.856567,255.939606 259.344635,253.740662 260.618256,251.451904 
	C261.759583,253.709213 262.921844,255.956284 264.030151,258.229675 
	C264.389648,258.967133 264.607849,259.773438 264.985168,260.926453 
z"/>
<path fill="#4F4F4F" opacity="1.000000" stroke="none" 
	d="
M323.036682,255.088531 
	C326.299591,250.107468 328.854767,249.793655 332.907806,253.691666 
	C332.379242,253.825333 331.986145,253.970093 331.581482,254.019333 
	C329.655945,254.253647 327.727264,254.461975 325.799683,254.679535 
	C327.091339,256.071472 328.430054,257.423218 329.662598,258.865692 
	C331.155457,260.612793 333.295013,262.285065 333.706940,264.287537 
	C333.931335,265.378387 331.323364,267.999115 329.697113,268.292969 
	C327.466400,268.695984 324.954956,267.545074 322.563812,267.060059 
	C322.758148,266.404877 322.952515,265.749695 323.146851,265.094513 
	C324.231323,265.513458 325.340912,266.327301 326.394470,266.260284 
	C328.041595,266.155548 329.650818,265.454498 331.276093,265.006042 
	C330.399323,263.672211 329.669220,262.206207 328.612793,261.034332 
	C326.852966,259.082123 324.884064,257.318420 323.036682,255.088531 
z"/>
<path fill="#3C3C3C" opacity="1.000000" stroke="none" 
	d="
M239.535431,251.472778 
	C240.773056,251.452301 241.605545,251.386856 242.423401,251.468353 
	C245.540604,251.779007 248.990723,251.634491 249.141891,256.199615 
	C249.285370,260.532837 246.101181,261.157013 242.943573,261.788666 
	C242.153580,261.946716 241.327820,261.925903 240.265213,262.006531 
	C240.062805,264.061951 239.864792,266.072662 239.633224,268.424103 
	C237.253601,265.487152 237.128006,255.023010 239.535431,251.472778 
M245.499924,259.170105 
	C245.899658,257.702118 246.992538,255.227402 246.578049,254.942032 
	C244.867874,253.764587 242.700653,253.251022 240.212326,252.308121 
	C240.212326,255.360153 240.212326,257.424591 240.212326,259.820221 
	C241.903915,259.737457 243.345764,259.666901 245.499924,259.170105 
z"/>
<path fill="#F1F1F1" opacity="1.000000" stroke="none" 
	d="
M189.005737,228.988464 
	C189.087677,227.552780 189.320297,226.442368 189.552917,225.331940 
	C190.589798,225.624390 192.077850,225.579788 192.589462,226.264618 
	C195.650497,230.362167 198.609543,234.552185 201.285126,238.906387 
	C201.767502,239.691376 200.773636,241.383469 200.461319,242.656769 
	C199.359848,242.197601 197.832367,242.050079 197.229599,241.226105 
	C194.399368,237.357117 191.823242,233.302231 189.005737,228.988464 
z"/>
<path fill="#F2F2F2" opacity="1.000000" stroke="none" 
	d="
M410.643036,78.367447 
	C412.272034,80.680443 413.884552,82.589775 415.056335,84.739372 
	C415.547272,85.639961 415.103821,87.049911 415.085175,88.228279 
	C413.986053,87.885902 412.404388,87.892242 411.864746,87.145523 
	C407.833954,81.568230 404.009369,75.841942 400.120148,70.162346 
	C400.360687,69.638069 400.601227,69.113800 400.841766,68.589523 
	C402.277527,69.161705 404.151917,69.349083 405.060059,70.384201 
	C407.109894,72.720520 408.682068,75.475899 410.643036,78.367447 
z"/>
<path fill="#E4E4E4" opacity="1.000000" stroke="none" 
	d="
M477.956787,216.379547 
	C479.974762,216.300049 481.992767,216.220551 484.358978,216.243774 
	C486.362213,219.631073 488.055939,222.896957 489.654480,226.208786 
	C490.360199,227.670898 490.872681,229.226242 491.472870,230.739258 
	C489.857666,230.834259 488.242493,230.929260 486.253174,230.982880 
	C485.513428,230.275513 485.147736,229.609512 484.402161,228.617859 
	C483.425476,226.663116 482.997559,224.944641 482.193268,223.425400 
	C480.912933,221.006989 479.381836,218.721344 477.956787,216.379547 
z"/>
<path fill="#F1F1F1" opacity="1.000000" stroke="none" 
	d="
M306.914612,151.926743 
	C307.847900,150.591232 309.119751,149.413727 310.692993,148.119324 
	C313.982513,155.019012 314.272644,155.040207 320.707550,150.912521 
	C322.306976,149.886581 324.352112,149.555435 326.192352,148.904922 
	C324.977448,150.501053 324.019501,152.426682 322.489990,153.619293 
	C319.931885,155.613907 316.854156,158.683975 314.283203,158.426392 
	C311.753448,158.172928 309.581909,154.344513 306.914612,151.926743 
z"/>
<path fill="#4F4F4F" opacity="1.000000" stroke="none" 
	d="
M316.788177,252.013000 
	C315.501343,252.852356 314.017090,253.315430 311.878296,253.982697 
	C311.878296,258.526337 311.878296,263.354584 311.878296,268.182831 
	C311.376434,268.194916 310.874542,268.207001 310.372681,268.219086 
	C310.372681,263.547729 310.372681,258.876373 310.372681,254.035660 
	C308.065887,253.530975 306.549133,253.199142 305.032379,252.867310 
	C305.019196,252.457123 305.005981,252.046921 304.992798,251.636719 
	C308.858795,251.636719 312.724762,251.636719 316.788177,252.013000 
z"/>
<path fill="#F1F1F1" opacity="1.000000" stroke="none" 
	d="
M111.848206,61.761448 
	C113.980576,62.206699 116.185539,62.489712 117.491814,63.723904 
	C118.183723,64.377625 117.860252,67.186981 117.007187,68.115013 
	C115.993980,69.217239 113.823822,69.987427 112.322479,69.765999 
	C108.519119,69.205078 108.247955,65.728653 111.848206,61.761448 
z"/>
<path fill="#F1F1F1" opacity="1.000000" stroke="none" 
	d="
M373.107849,280.023590 
	C374.983185,281.427368 377.270355,282.652985 377.669922,284.328674 
	C377.940613,285.463959 375.771545,288.091370 374.298248,288.456726 
	C373.017822,288.774170 370.559296,287.230682 369.720215,285.844482 
	C367.898468,282.834686 369.714905,280.958527 373.107849,280.023590 
z"/>
<path fill="#F1F1F1" opacity="1.000000" stroke="none" 
	d="
M464.122681,240.052399 
	C469.089020,238.837860 474.172363,237.977112 479.625977,237.042038 
	C480.069824,241.156509 477.146667,242.578186 473.826660,243.551422 
	C469.940979,244.690475 466.654449,243.834137 464.122681,240.052399 
z"/>
<path fill="#3C3C3C" opacity="1.000000" stroke="none" 
	d="
M274.038605,256.331604 
	C274.127045,254.478195 274.215515,253.076965 274.303955,251.675751 
	C274.702148,251.685455 275.100342,251.695160 275.498535,251.704865 
	C275.498535,257.115692 275.498535,262.526489 275.498535,267.937317 
	C275.011902,267.959930 274.525238,267.982513 274.038605,268.005127 
	C274.038605,264.264679 274.038605,260.524261 274.038605,256.331604 
z"/>
<path fill="#FEFEFE" opacity="1.000000" stroke="none" 
	d="
M188.404572,22.159386 
	C192.085831,20.188063 195.561813,20.465311 197.499359,23.606750 
	C198.680756,25.522217 198.962357,28.907368 198.086700,30.969261 
	C196.659897,34.328846 193.399414,34.922844 190.079346,33.009720 
	C186.391846,30.884869 185.617889,26.581167 188.404572,22.159386 
z"/>
<path fill="#FEFEFE" opacity="1.000000" stroke="none" 
	d="
M216.668457,11.425581 
	C219.560410,15.875370 216.840439,18.381893 213.892181,20.311640 
	C210.567535,22.487738 208.778152,19.345264 206.994644,17.374727 
	C204.785599,14.934010 204.141174,12.225142 206.762665,9.462953 
	C209.222015,6.871593 212.789490,7.431219 216.668457,11.425581 
z"/>
<path fill="#FEFEFE" opacity="1.000000" stroke="none" 
	d="
M127.948502,289.005737 
	C123.114754,291.540710 120.690880,288.169006 119.544342,285.187073 
	C118.765701,283.161957 119.663139,279.152618 121.275841,277.864349 
	C123.648201,275.969269 127.433746,275.996674 129.512375,279.313324 
	C131.605316,282.652832 132.299240,286.126129 127.948502,289.005737 
z"/>
<path fill="#FEFEFE" opacity="1.000000" stroke="none" 
	d="
M323.686584,126.247223 
	C324.522430,125.830254 325.233490,125.797318 325.783478,125.482780 
	C332.112305,121.863548 339.766357,125.057838 340.312866,132.336975 
	C340.510986,134.975708 337.763519,138.774902 335.282837,140.430466 
	C332.379089,142.368378 328.544800,140.922363 326.614288,137.781998 
	C325.103790,135.324875 324.544220,132.283188 323.289490,129.252563 
	C323.173584,128.169418 323.330292,127.334930 323.686584,126.247223 
z"/>
<path fill="#FDFDFD" opacity="1.000000" stroke="none" 
	d="
M49.488403,222.188126 
	C49.618698,211.807312 49.145180,201.774658 50.281879,191.927902 
	C51.370781,182.495193 59.340389,178.086945 67.694473,180.891266 
	C72.975433,182.663971 75.613091,186.906799 75.849739,191.821335 
	C76.382660,202.888794 76.749626,214.046616 75.914230,225.071442 
	C75.250336,233.833038 70.589035,237.367706 63.078918,237.359787 
	C55.652905,237.351959 51.605061,233.557953 49.989052,225.080185 
	C49.833385,224.263535 49.721012,223.438629 49.488403,222.188126 
z"/>
<path fill="#FAFAFA" opacity="1.000000" stroke="none" 
	d="
M422.496216,198.117096 
	C423.908661,199.511185 425.719177,200.783783 425.753479,202.102600 
	C425.999878,211.572372 425.977570,221.052780 425.846558,230.527145 
	C425.781952,235.200089 417.956421,237.980957 413.791992,234.378830 
	C411.359131,232.274445 409.073608,228.791077 408.747955,225.713669 
	C408.093597,219.530136 408.140930,213.085190 409.163940,206.959412 
	C410.400024,199.557938 414.565887,197.201813 422.496216,198.117096 
z"/>
<path fill="#F6F6F6" opacity="1.000000" stroke="none" 
	d="
M471.306824,197.107315 
	C477.309143,201.582657 475.763489,207.475830 475.468292,213.507294 
	C469.951965,213.507294 464.759644,213.507294 459.570068,213.507294 
	C459.200836,200.772705 462.496826,196.036301 471.306824,197.107315 
z"/>
<path fill="#F1F1F1" opacity="1.000000" stroke="none" 
	d="
M464.889832,231.296555 
	C463.742096,229.976089 462.594360,228.655624 461.727173,226.650635 
	C463.484406,224.981186 464.838409,223.622009 466.463348,223.089142 
	C469.855988,221.976608 471.921448,220.073700 471.981323,216.367249 
	C472.437286,216.303680 472.893280,216.240097 473.693848,216.617401 
	C477.034088,221.375839 480.029724,225.693375 483.025360,230.010895 
	C481.660126,230.857544 480.294891,231.704178 478.445221,232.226654 
	C476.360443,228.786911 474.668427,225.106720 470.506165,226.216217 
	C468.336792,226.794479 466.743378,229.533524 464.889832,231.296555 
z"/>
<path fill="#FDFDFD" opacity="1.000000" stroke="none" 
	d="
M471.529572,216.286499 
	C471.921448,220.073700 469.855988,221.976608 466.463348,223.089142 
	C464.838409,223.622009 463.484406,224.981186 461.785828,226.318420 
	C460.633545,223.474091 459.703156,220.277466 458.518036,216.205734 
	C463.372101,216.205734 467.224976,216.205734 471.529572,216.286499 
z"/>
<path fill="#F6F6F6" opacity="1.000000" stroke="none" 
	d="
M465.106842,231.581131 
	C466.743378,229.533524 468.336792,226.794479 470.506165,226.216217 
	C474.668427,225.106720 476.360443,228.786911 478.091187,232.274063 
	C473.810822,234.229660 469.496216,234.223648 465.106842,231.581131 
z"/>
<path fill="#FDFDFD" opacity="1.000000" stroke="none" 
	d="
M483.262756,229.944122 
	C480.029724,225.693375 477.034088,221.375839 474.029083,216.713257 
	C475.072815,216.318481 476.125916,216.268768 477.567932,216.299316 
	C479.381836,218.721344 480.912933,221.006989 482.193268,223.425400 
	C482.997559,224.944641 483.425476,226.663116 484.027466,228.684021 
	C483.975433,229.422913 483.797913,229.690079 483.262756,229.944122 
z"/>
<path fill="#FEFEFE" opacity="1.000000" stroke="none" 
	d="
M151.086105,47.985706 
	C154.740601,46.045475 157.559906,47.419952 159.180038,50.048447 
	C160.314743,51.889362 161.006714,55.061195 160.168732,56.811451 
	C158.919067,59.421539 156.653290,62.287163 152.618851,60.307602 
	C149.019608,58.541592 147.087021,54.781715 148.455093,51.301559 
	C148.914124,50.133816 149.958939,49.196342 151.086105,47.985706 
z"/>
<path fill="#FEFEFE" opacity="1.000000" stroke="none" 
	d="
M179.899719,42.651821 
	C178.339371,46.007793 175.855957,48.008945 172.702423,46.772312 
	C170.513824,45.914078 168.065979,43.744228 167.383575,41.628345 
	C166.815155,39.865948 168.160645,36.895462 169.590790,35.291275 
	C170.512787,34.257069 173.301102,34.135822 174.933075,34.640285 
	C178.431549,35.721710 180.084534,38.529690 179.899719,42.651821 
z"/>
<path fill="#FEFEFE" opacity="1.000000" stroke="none" 
	d="
M142.382095,263.361176 
	C144.484955,263.993408 146.580231,264.397064 147.917328,265.625793 
	C150.693848,268.177216 150.957443,273.732910 148.124695,274.812103 
	C145.724869,275.726379 141.991013,275.234467 139.726944,273.887054 
	C136.798370,272.144165 137.271149,267.167847 139.887390,264.751465 
	C140.479904,264.204193 141.310287,263.914490 142.382095,263.361176 
z"/>
<path fill="#FEFEFE" opacity="1.000000" stroke="none" 
	d="
M429.788452,264.276306 
	C428.797607,261.498016 427.276154,258.854980 427.670074,256.537567 
	C427.913910,255.103119 431.308289,252.969788 432.861206,253.281097 
	C435.199127,253.749786 437.916351,255.682571 439.024506,257.763824 
	C439.778687,259.180237 438.541290,262.252869 437.331909,263.981445 
	C435.442993,266.681335 432.689331,266.852020 429.788452,264.276306 
z"/>
<path fill="#FEFEFE" opacity="1.000000" stroke="none" 
	d="
M176.666077,246.310242 
	C174.130356,242.498810 175.079498,239.354355 178.377609,237.559479 
	C182.102951,235.532089 185.171616,237.743958 187.155792,240.890121 
	C188.959030,243.749420 188.461624,246.743469 185.621338,248.767548 
	C182.040833,251.319122 179.140015,249.965820 176.666077,246.310242 
z"/>
<path fill="#FEFEFE" opacity="1.000000" stroke="none" 
	d="
M169.000214,256.897644 
	C168.531525,261.220428 166.356705,263.660492 162.415573,262.774200 
	C159.175980,262.045654 156.435303,260.104645 156.952042,255.809998 
	C157.370132,252.335297 159.098068,250.044891 162.505966,250.120102 
	C166.286377,250.203568 169.200272,251.964767 169.000214,256.897644 
z"/>
<path fill="#FEFEFE" opacity="1.000000" stroke="none" 
	d="
M420.695862,271.529053 
	C421.182739,275.891296 419.184631,278.248352 415.416412,278.890594 
	C411.526581,279.553528 409.253876,276.784485 408.647583,273.729858 
	C408.236969,271.660980 409.314636,268.481293 410.871674,267.011383 
	C413.872131,264.178986 417.438293,265.950043 420.695862,271.529053 
z"/>
<path fill="#FEFEFE" opacity="1.000000" stroke="none" 
	d="
M452.633209,239.355850 
	C456.596497,240.541763 459.802795,242.434738 458.781250,246.626938 
	C458.281830,248.676392 455.946106,251.172073 453.935883,251.772308 
	C449.842834,252.994415 447.520660,249.866913 446.361206,246.400620 
	C445.248627,243.074570 447.858948,240.162552 452.633209,239.355850 
z"/>
<path fill="#FEFEFE" opacity="1.000000" stroke="none" 
	d="
M382.989685,104.678001 
	C381.764282,109.155563 378.806366,111.148376 374.784180,110.885391 
	C369.512482,110.540703 367.679474,105.755669 366.536377,101.953949 
	C365.938904,99.966873 368.552795,96.203011 370.689850,94.387833 
	C374.232605,91.378609 380.221436,94.404808 382.357208,99.898956 
	C382.878296,101.239441 382.802032,102.812134 382.989685,104.678001 
z"/>
<path fill="#FEFEFE" opacity="1.000000" stroke="none" 
	d="
M448.454742,40.082405 
	C454.584442,40.313694 459.184021,44.000614 459.519165,49.556168 
	C459.639587,51.552917 458.018860,54.362503 456.318512,55.568058 
	C454.512878,56.848248 451.158691,57.763634 449.367310,56.931000 
	C441.421967,53.238094 440.146332,43.905003 448.454742,40.082405 
z"/>
<path fill="#FDFDFD" opacity="1.000000" stroke="none" 
	d="
M394.977722,83.991516 
	C396.680054,85.242188 398.062500,86.334251 400.148376,87.981964 
	C397.465363,89.513092 395.990906,90.354530 393.880096,91.559113 
	C392.747406,88.368713 391.804779,85.713608 390.359741,81.643440 
	C392.632568,82.801216 393.645233,83.317070 394.977722,83.991516 
z"/>
<path fill="#F6F6F6" opacity="1.000000" stroke="none" 
	d="
M245.143768,259.383240 
	C243.345764,259.666901 241.903915,259.737457 240.212326,259.820221 
	C240.212326,257.424591 240.212326,255.360153 240.212326,252.308121 
	C242.700653,253.251022 244.867874,253.764587 246.578049,254.942032 
	C246.992538,255.227402 245.899658,257.702118 245.143768,259.383240 
z"/>
</svg>